<svg xmlns="http://www.w3.org/2000/svg" xmlns:xlink="http://www.w3.org/1999/xlink" viewBox="0 0 949 977"><defs/><defs><path id="a" d="M12.8 5.702H90.39999999999999V83.30199999999999H12.8z"/></defs><g fill="none" fill-rule="evenodd"><path fill="#FAFBFC" d="M291.115044,89 C93.129286,176.704437 11.7903443,349.346341 1.63214929,488.189686 C-8.52604568,627.033032 31.0278516,650.704454 56.8137361,690.162854 C82.5996206,729.621254 82.5996206,782.296315 82.5996206,804.582291 C82.5996206,826.868267 103.984568,900.743194 247.313536,900.743194 C390.642504,900.743194 344.422528,968.925755 541.076285,975.638358 C737.730041,982.35096 847.070313,949.678203 896,864.468008 C944.929688,779.257812 996.219155,274.927377 864.43692,105.981355 C732.654685,-62.9646673 489.100802,1.29556336 291.115044,89 Z"/><path stroke="#E2ECF6" stroke-width="1.6" d="M66.4 216H89.60000000000001V239.2H66.4zM51.2 190.4H67.2V206.4H51.2z" transform="translate(282.4 294)"/><g transform="translate(282.4 294.698)"><rect width="40.8" height="4.8" x="15.2" y="92" fill="#E2ECF6" fill-rule="nonzero" rx="2.4"/><rect width="40.8" height="4.8" x="49.6" y="100" fill="#E2ECF6" fill-rule="nonzero" rx="2.4" transform="matrix(-1 0 0 1 140 0)"/><rect width="29.6" height="4.8" x="15.2" y="100" fill="#E2ECF6" fill-rule="nonzero" rx="2.4" transform="matrix(-1 0 0 1 60 0)"/><rect width="57.6" height="4.8" x="15.2" y="108.8" fill="#E2ECF6" fill-rule="nonzero" rx="2.4" transform="matrix(-1 0 0 1 88 0)"/><rect width="13.6" height="4.8" x="76.8" y="108.8" fill="#E2ECF6" fill-rule="nonzero" rx="2.4" transform="matrix(-1 0 0 1 167.2 0)"/><rect width="13.6" height="4.8" x="59.2" y="117.6" fill="#E2ECF6" fill-rule="nonzero" rx="2.4" transform="matrix(-1 0 0 1 132 0)"/><rect width="37.6" height="4.8" x="15.2" y="117.6" fill="#E2ECF6" fill-rule="nonzero" rx="2.4" transform="matrix(-1 0 0 1 68 0)"/><rect width="18.4" height="4.8" x="15.2" y="125.6" fill="#E2ECF6" fill-rule="nonzero" rx="2.4" transform="matrix(-1 0 0 1 48.8 0)"/><rect width="29.6" height="4.8" x="60.8" y="92" fill="#E2ECF6" fill-rule="nonzero" rx="2.4"/><use fill="#E2ECF6" xlink:href="#a"/><path stroke="#E2ECF6" stroke-width="1.6" d="M0 0.102H107.2V153.702H0z"/><path stroke="#E2ECF6" stroke-width="1.6" d="M7.2 7.302H100V147.302H7.2z"/></g><g fill-rule="nonzero" stroke="#E2ECF6" transform="translate(466.4 322.8)"><circle cx="49.2" cy="49.2" r="49.2" stroke-width="1.6"/><ellipse cx="49.2" cy="49.246" stroke-width="1.6" rx="39.6" ry="39.749"/><path stroke-linecap="round" stroke-linejoin="round" stroke-width="4" d="M48.8 27.634L48.8 50.8 66.8 50.8"/><path stroke-linecap="round" stroke-linejoin="round" stroke-width="1.6" d="M8.8 50.8L18.54 50.8M48.8 9.498L48.8 19.238M48.8 79.098L48.8 88.838M79.2 50.8L88.94 50.8"/></g><g fill-rule="nonzero"><path stroke="#E2ECF6" stroke-dasharray="8" stroke-width="1.6" d="M0,159.121978 C17.2205533,100.051143 49.1364372,81.8421448 95.7476518,104.494983 C165.664474,138.474241 138.699419,41.618937 153.6,27.1219776" transform="translate(564.8 316.4)"/><path fill="#E2ECF6" d="M1.04 16.106L12.807 20.289 47.728 6.668z" transform="rotate(-17 1431.725 -2162.197)"/><path fill="#C0D5E9" d="M13.988 18.354L15.648 28.191 48.909 4.733z" transform="rotate(-17 1438.79 -2159.214)"/><path fill="#E2ECF6" d="M16.213 27.654L34.158 31.251 49.367 4.4z" transform="rotate(-17 1440.13 -2157.85)"/></g><path stroke="#E2ECF6" stroke-linecap="round" stroke-width="1.6" d="M71.2 225.2L84.8 225.2M71.2 230L79.2 230" transform="translate(282.4 294)"/><g fill-rule="nonzero" transform="translate(144 592.4)"><path fill="#C0D5E9" d="M149.6 20.8H159.2V253.60000000000002H149.6z"/><rect width="189.6" height="20.8" x="60" fill="#E2ECF6" rx="10.4"/><path fill="#C0D5E9" d="M8,252 C44.9699926,249.722557 272.800523,250.131953 310.4,252.8 C347.999477,255.468047 232.047273,262.604987 154.562081,262.4 C77.0768889,262.195013 -28.9699926,254.277443 8,252 Z" opacity=".2"/><path fill="#A5C2DD" d="M149.6,20.8 C152.534216,28.51169 154.665566,37.8475358 155.994051,48.8075374 C157.322536,59.7675391 158.391186,76.8316933 159.2,100 L159.2,20.8 L149.6,20.8 Z"/></g><g fill-rule="nonzero" transform="translate(417.6 485.2)"><path fill="#A5C2DD" d="M9.91508721,188.8 C0.861975117,204.503202 6.05402794,214.636535 25.4912457,219.2 L31.2,200.611387 L9.91508721,188.8 Z"/><path fill="#E2ECF6" d="M212,18.4 C220.394728,18.4 227.2,25.2052718 227.2,33.6 L227.2,137.6 C227.2,145.994728 220.394728,152.8 212,152.8 C204.541571,152.8 198.495319,146.753748 198.495319,139.295319 C198.495319,138.781734 198.524617,138.268567 198.583045,137.758316 C201.484163,112.433602 202.934722,94.8026403 202.934722,84.8654316 C202.934722,74.9843054 201.50049,57.839492 198.632026,33.4309913 C197.764358,26.0480495 203.046059,19.3596312 210.429005,18.4919944 C210.950428,18.4307173 211.474989,18.4 212,18.4 Z" transform="rotate(10 212 85.6)"/><path fill="#C0D5E9" d="M25.3121627,220.167551 C84.1967745,237.271292 133.075369,234.487928 171.947947,211.817458 C211.639832,188.669169 240,120.116451 240,25.6991829 C240,-10.4100146 229.608386,-5.64714942 229.608386,22.5008476 C229.608386,50.6488447 217.595794,181.274668 168.744589,187.030272 C139.845253,190.435166 92.2991871,197.324659 26.1063904,207.698752 L26.1063913,207.698757 C22.6143983,208.246042 20.2272401,211.520522 20.7745241,215.012515 C21.1589871,217.465615 22.9276695,219.474947 25.3121627,220.167551 Z"/><path fill="#A5C2DD" d="M156,204.8 C190.996875,184.533333 212.330208,150.4 220,102.4 C206.542969,142.065365 193.970684,168.274547 182.283146,181.027547 L156,204.8 Z"/><path fill="#3A61D6" d="M24,208.266818 C100.575367,229.130107 153.375367,220.134054 182.4,181.278658 C178.148727,176.071491 171.770539,173.820706 163.265436,174.526303 C144.41587,189.527874 128.693438,198.721745 116.098142,202.107916 C96.3603027,207.414317 65.6609221,209.467285 24,208.266818 Z"/><rect width="9.6" height="136.8" x="54.503" y="219.279" fill="#C0D5E9" rx="4.8" transform="rotate(10 59.303 287.679)"/><rect width="9.6" height="146.4" x="147.236" y="215.267" fill="#C0D5E9" rx="4.8" transform="scale(-1 1) rotate(10 0 -1449.312)"/><path fill="#A5C2DD" d="M64.8,228.8 C68.5767496,235.34106 69.6969064,247.34106 68.1604704,264.8 L74.4,229.870156 L64.8,228.8 Z"/><path fill="#A5C2DD" d="M136,223.2 C138.287749,231.392633 138.974526,246.0593 138.060332,267.2 L145.6,225.892812 L136,223.2 Z" transform="matrix(-1 0 0 1 281.6 0)"/></g><g fill-rule="nonzero"><path fill="#E2ECF6" d="M31.2 92L33.59 88.8 100.283 88.8 106.4 92z" transform="translate(231.2 492.4)"/><path fill="#C0D5E9" d="M7.89865844,2.99948555 C7.34648628,0.863388705 5.15923749,-0.422688313 3.01330153,0.126952137 C0.867365574,0.676592586 -0.424635264,2.85381285 0.127536893,4.9899097 L24.6872503,100 L127.993587,99.8442824 C130.209422,99.8411378 132.003151,98.0505353 132,95.8448598 C131.996833,93.6391843 130.197982,91.8536802 127.982147,91.8568248 L30.9058782,92.003701 L7.89865844,2.99948555 Z" transform="translate(231.2 492.4)"/><path fill="#638AFF" d="M33.6 89.589L31.181 92.8 7.2 1.6 11.017 2.942z" transform="translate(231.2 492.4)"/><path fill="#A5C2DD" d="M24.8,100 C58.7310394,99.359394 84.9757779,98.6927273 103.534216,98 C122.092653,97.3072727 131.568441,96.640606 131.96158,96 C132.104211,96.5889461 131.849715,97.3283977 131.198092,98.2183546 C130.546469,99.1083116 129.739922,99.6100543 128.77845,99.7235828 L24.8,100 Z" transform="translate(231.2 492.4)"/></g><g fill-rule="nonzero" transform="translate(211.2 376.4)"><path fill="#FFD9E1" d="M224.725925,64.2846704 C223.486506,63.5067842 222.36659,64.0757744 221.366177,65.991641 C219.727495,69.1298391 216.583582,74.0596832 214.941373,77.8841444 C213.765661,80.6222044 218.030692,81.7788454 227.736468,81.3540673 L224.725925,64.2846704 Z" transform="rotate(2 221.244 72.694)"/><path fill="#FFC4D1" d="M216,80 C217.959232,82.1333333 221.229681,82.8444444 225.811347,82.1333333 C227.390134,80.4046442 225.793152,80.0261457 221.020401,80.9978378 C220.155162,81.1739932 218.481695,80.8413806 216,80 Z"/><path fill="#2A2945" d="M297.061967,235.2 C211.802557,253.816928 166.915234,263.599513 162.4,264.547754 C155.627148,265.970116 126.4,269.672434 114.4,298.226994 C106.4,317.263368 89.3333333,362.128097 63.2,432.821182 C68.0985265,438.960493 74.3215363,441.162059 81.8690295,439.42588 C98.7767875,409.810625 110.953778,390.645924 118.4,381.931775 C129.569333,368.860552 153.582104,345.611834 156.791052,302.407204 L309.6,290.405917 L297.061967,235.2 Z"/><path fill="#FFC4D1" d="M65.386 427.2L53.6 454.94 71.832 463.2 84.8 434.688z"/><path fill="#FFC4D1" d="M217.678 427.2L204.8 455.652 223.122 464 236 435.548z" transform="matrix(-1 0 0 1 440.8 0)"/><path fill="#2A2945" d="M58.8303868 442.4C22.8844742 447.207338 3.27434527 455.740671 0 468L76.1151139 468.8 78.4 448.8C73.0270083 448.862765 69.2223725 448.528474 66.9860926 447.797126 64.7498127 447.065779 62.0312441 445.266737 58.8303868 442.4zM208.316305 444C173.509341 447.80562 154.470572 455.806974 151.2 468.004062L235.2 468.8 235.166535 455.418876C228.035152 455.30264 222.901075 454.577518 219.764306 453.243512 216.627536 451.909505 212.811536 448.828334 208.316305 444z"/><path fill="#FFC4D1" d="M239.934563,161.6 L227.175343,202.776522 C206.898762,198.525507 183.706981,196.112648 157.6,195.537943 L159.142076,213.201555 C188.893468,228.156229 219.378483,233.791669 250.597122,230.107878 C262.521304,215.645589 271.522263,198.114658 277.6,177.515085 L239.934563,161.6 Z"/><path fill="#E40133" d="M266.442046,101.6 C250.485697,119.269471 239.271682,142.27121 232.8,170.605218 C244.979994,168.079302 258.046661,170.94423 272,179.2 C267.797368,161.685693 265.307955,147.509951 264.531763,136.672774 C264.072854,130.265507 264.709615,118.574582 266.442046,101.6 Z"/><path fill="#FE2D5B" d="M277.38001,74.3635676 C284.559588,89.3601347 282.360648,97.6229242 270.783189,99.1519361 C253.417,101.445454 245.42933,167.830363 274.561144,204.166042 C279.09362,217.74201 277.834302,231.18488 270.783189,244.494653 C313.683763,284.160941 345.666519,299.796021 366.731454,291.399893 C373.406027,288.739521 383.845859,261.952059 385.213553,244.494653 C389.734477,141.50058 354.58873,84.0023625 279.776311,72 L277.38001,74.3635676 Z"/><path fill="#FFD9E1" d="M259.339343 217.737369C226.990662 207.974115 194.309221 202.505847 161.295019 201.332565 160.105503 205.333737 156.199488 207.334323 149.576971 207.334323 139.643196 207.334323 227.471761 256.148618 269.73446 245.745571 311.997159 235.342525 381.906355 112.90667 330.889068 98.4 324.962094 98.7981505 320.981786 99.3316401 318.948143 100.000469 302.651406 105.360171 282.781806 144.605805 259.339343 217.737369zM259.2 88.7273399C264.678078 92.5587688 267.417117 100.049656 267.417117 111.2 285.028748 105.917501 294.823043 94.0004167 296.8 75.4487484L274.88816 68.8 259.2 88.7273399z"/><path fill="#FFD9E1" d="M238.179933,18.4 C216.488581,40.3167521 213.389816,64.4263414 228.883639,90.7287679 C252.124374,130.182408 300.393593,50.4134378 289.6671,39.0308821 C282.516104,31.4425117 265.353716,24.565551 238.179933,18.4 Z"/><path fill="#B20128" d="M271.524295,245.282797 C272.455982,248.520893 274.056185,249.940511 276.324902,249.54165 C283.935868,248.203575 292.404299,239.082733 300.719795,230.58251 C313.500313,217.518074 325.025818,200.103004 337.6,177.933602 L334.558927,174.4 C326.600939,190.423679 316.582178,205.4942 304.502643,219.611562 C292.423108,233.728924 281.430325,242.286003 271.524295,245.282797 Z"/><path fill="#363558" d="M346.621681,310.064322 C346.621681,310.064322 346.621681,310.064322 346.621681,310.064322 C307.105457,323.660092 251.966981,323.660092 181.206253,310.064322 C196.346535,318.874778 205.858549,336.228706 209.742294,362.126106 C213.626039,388.023507 219.50506,413.06171 227.379357,437.240716 C220.141766,442.449685 213.500323,443.714305 207.455027,441.034575 C168.810514,366.96325 147.183061,325.995719 142.572668,318.131982 C135.657077,306.336376 130.609075,283.632954 165.738261,274.422023 C189.157719,268.281402 226.544419,259.871421 277.898363,249.192081 L325.828611,237.961565 C346.03006,233.228097 366.24376,245.767444 370.977157,265.96891 C375.375239,284.739302 364.851637,303.792206 346.621681,310.064322 Z"/><path fill="#B20128" d="M332.8,182.05913 L337.932529,186.4 C354.151163,148.95151 357.777908,123.35151 348.812761,109.6 L332.8,182.05913 Z"/><path fill="#FE4D74" d="M280.8,151.712948 C305.448226,152.974589 324.569963,161.603607 338.165213,177.6 C359.127038,123.2 354.806625,96 325.203975,96 C317.127741,97.1384728 310.525304,100.78754 305.396662,106.947202 C299.140509,114.461042 290.941622,129.382957 280.8,151.712948 Z"/><path fill="#E40133" d="M296.842043,75.2 C296.522193,78.5016258 295.974845,81.3365555 295.2,83.704789 C310.185892,84.2381224 326.406204,90.2031927 343.860938,101.6 C335.274359,93.6116155 327.618204,87.8910162 320.892472,84.438202 C315.298056,81.5661755 307.281246,78.4867749 296.842043,75.2 Z"/><path fill="#FFC4D1" d="M224.364948,37.687847 C223.343277,39.9859639 222.688294,41.7474059 222.4,42.9721732 C235.2,49.0817073 248,47.0243162 260.8,36.8 L224.364948,37.687847 Z"/><path fill="#2A2945" d="M205.6,23.3346442 C214.303637,40.8493239 232.202067,45.8914286 259.295289,38.4609584 C264.111845,43.2348609 265.063436,50.8979726 262.150062,61.4502934 C274.138198,45.3470474 280.401891,48.8636162 280.94114,72 C300.437447,43.8024124 298.752206,24.130766 275.885418,12.9850607 C267.034384,-0.814383885 250.01729,-0.0182620807 224.834133,15.3734261 C220.624277,18.1774274 217.466885,20.0150545 215.361957,20.8863072 C213.192633,21.784214 209.938647,22.6003263 205.6,23.3346442 Z"/><path fill="#F9AABB" d="M296.8,75.7855748 L281.40394,71.2 L277.6,76.8744031 C280.81354,81.624801 286.67268,84 295.177418,84 C295.645289,82.3868641 295.964511,81.1485256 296.135085,80.2849843 C296.325085,79.3230977 296.546723,77.8232946 296.8,75.7855748 Z"/><path fill="#FFC4D1" d="M246.4,101.6 C256.552876,100.007947 267.001644,91.7136484 277.746304,76.7171031 L281.6,70.8630418 L276.033594,52.8 C275.994075,61.4938616 273.182529,70.5557937 267.598957,79.9857963 C262.015386,89.4157989 254.949066,96.6205335 246.4,101.6 Z"/><circle cx="268.4" cy="66" r="14.8" fill="#3A61D6"/><circle cx="269.6" cy="65.6" r="8" fill="#638AFF"/><path fill="#3A61D6" d="M276.653232,62.6258763 C281.909957,42.7740408 283.138104,27.353822 279.560518,16.526267 C275.912444,5.48537636 265.342967,0 252.272697,0 C242.636692,0 237.449857,4.22870881 233.94298,6.33008327 C228.321667,9.6984603 228.904223,13.1621602 230.417188,12.2320313 C232.87402,10.7216379 245.127404,3.8573131 253.751724,5.13678231 C262.376045,6.41625152 269.280232,10.3943898 271.902661,18.8759461 C274.753265,28.095471 273.815052,42.0487155 268.905379,60.5899177 C268.341007,62.7212486 269.617909,64.9047985 271.75742,65.467013 C273.89693,66.0292274 276.08886,64.7572072 276.653232,62.6258763 Z"/><path fill="#FFC4D1" d="M220.037488,68.8 C221.050504,66.903423 221.778271,65.4905281 222.22079,64.5613155 C222.845047,63.2504827 221.838411,61.1967109 219.200883,58.4 C219.193653,60.2918806 219.23084,61.8360757 219.312445,63.0325851 C219.394051,64.2290946 219.635731,66.1515662 220.037488,68.8 Z"/><path fill="#F9AABB" d="M283.325368,151.866452 C307.750223,158.829992 323.717787,168.710489 331.22806,181.507943 L335.2,174.189954 C326.719633,165.924902 318.823735,160.332372 311.512306,157.412365 C304.200877,154.492359 294.805231,152.643721 283.325368,151.866452 Z"/><path stroke="#17152C" stroke-width=".8" d="M364,263.2 C330.738086,277.871818 291.701383,286.405151 246.889892,288.8 C179.672655,292.392273 158.03011,282.028261 165.358403,306.4 C172.686695,330.771739 190.661585,321.862398 202.567317,384.531199 C206.299555,407.643733 210.268132,422.133333 214.473049,428"/><path fill="#E40133" d="M368.440769,258.633122 C373.542466,270.086139 373.217039,281.336589 367.46449,292.384473 C387.290228,273.052058 391.731762,233.7239 380.78909,174.4 C380.395181,201.776924 379.53043,220.841753 378.194837,231.594488 C377.074232,240.616386 373.822875,249.629264 368.440769,258.633122 Z"/><path stroke="#17152C" stroke-linecap="round" stroke-width=".8" d="M344.8,245.6 C360.289893,250.851457 367.448647,263.38479 366.276264,283.2"/><path stroke="#B20128" stroke-linecap="round" stroke-width=".8" d="M284,145.797678 C299.2,144.541109 314.4,149.275217 329.6,160"/><path fill="#FFC4D1" d="M162.4,196.242999 C145.359782,184.203253 129.40781,183.208577 114.544083,193.258972 C108.165364,198.591507 109.150407,202.468981 117.499214,204.891393 L146.368034,207.875421 C149.676617,208.654556 151.839432,209.331285 152.856478,209.905608 C158.689047,213.19924 160.315791,215.765915 160.37532,215.835368 C161.499909,217.14746 162.174802,210.61667 162.4,196.242999 Z"/><path stroke="#B20128" stroke-linecap="round" stroke-width=".8" d="M363.2,250.280689 C370.904573,240.472467 374.75686,222.912237 374.75686,197.6" transform="rotate(-2 368.978 223.94)"/><path stroke="#17152C" stroke-linecap="round" stroke-width="1.6" d="M178.4 449.6C180.974555 449.957656 183.374555 451.824323 185.6 455.2M26.4 448.8C28.9745546 449.157656 31.3745546 451.024323 33.6 454.4M184.8 448C187.374555 448.357656 189.774555 450.224323 192 453.6M32 447.2C34.5745546 447.557656 36.9745546 449.424323 39.2 452.8M191.2 447.2C193.774555 447.557656 196.174555 449.424323 198.4 452.8M38.4 446.4C40.9745546 446.757656 43.3745546 448.624323 45.6 452"/><path fill="#FFC4D1" d="M228.331277,66.3800872 C230.301567,65.4443859 234.31587,62.2451237 236.260808,62.7830305 C238.19207,63.317155 239.458316,64.2081222 240.138536,65.4429674 C240.467618,66.040369 241.205441,66.2503876 241.786511,65.9120571 C242.367581,65.5737266 242.571859,64.8151658 242.242777,64.2177642 C241.214986,62.3519516 239.404065,61.0777355 236.889005,60.3821514 C234.387621,59.6903496 231.874411,59.9395818 229.39838,61.1154622 C228.792146,61.4033655 228.572104,61.81166 228.331277,62.7830305 C228.09045,63.754401 227.725044,66.6679905 228.331277,66.3800872 Z"/><path fill="#F9AABB" d="M259.339343 217.737369L267.5775 193.12375C264.303375 187.881871 261.557323 181.203329 259.339343 173.088125 252.679527 170.398842 245.356191 169.326303 237.369336 169.870508 247.243935 171.81149 254.130034 177.40391 258.027635 186.647769 262.601405 197.495286 263.038641 207.858486 259.339343 217.737369zM110.4 199.517728C110.929341 203.572576 114.170804 205.6 120.124388 205.6 134.215358 194.200491 147.773895 191.049667 160.8 196.147528 146.441361 186.172396 132.127228 186.354074 117.857603 196.692562 116.140628 197.350382 114.861422 197.907546 114.019983 198.364056 113.151423 198.83528 111.944762 199.219837 110.4 199.517728z"/><path fill="#FFD9E1" d="M168.8,201.509926 C152.871028,188.49239 137.455883,186.914371 122.554564,196.775869 C116.159712,202.008179 117.147247,205.812776 125.517169,208.189659 C126.795594,211.62159 130.302212,213.689845 133.924261,213.148297 C146.241873,211.306603 154.915874,212.20273 159.946265,215.836675 C161.516681,216.971141 164.467926,212.195558 168.8,201.509926 Z"/><path fill="#17152C" d="M140.574388,315.2 C143.253424,327.370456 139.691388,340.428428 129.88828,354.373918 C120.085173,368.319407 113.055746,381.661434 108.8,394.4 L134.077267,362.733054 C143.97907,348.690106 149.419982,338.662425 150.4,332.650011 L140.574388,315.2 Z"/><path stroke="#17152C" stroke-linecap="round" stroke-width=".8" d="M200.8,428.609515 C210.350095,429.425052 217.550095,427.62188 222.4,423.2"/></g><g fill-rule="nonzero"><path fill="#C0D5E9" d="M33.6,42.4 L32.2138964,50.5461325 C37.5369015,51.412973 41.6,56.0319928 41.6,61.6 C41.6,67.7855892 36.5855892,72.8 30.4,72.8 C29.7363611,72.8 29.0862033,72.7422806 28.4542727,72.6315882 L27.2,80 L6.4,80 L0,42.4 L33.6,42.4 Z M31.6769269,53.7013557 L28.9912865,69.4763703 C29.4486013,69.557612 29.9193505,69.6 30.4,69.6 C34.818278,69.6 38.4,66.018278 38.4,61.6 C38.4,57.6163296 35.48826,54.3127325 31.6769269,53.7013557 Z" transform="translate(278.4 501.2)"/><path stroke="#E2ECF6" stroke-linecap="round" stroke-width="1.6" d="M18.4 38.4C9.6 30.7109893 9.06666667 22.2094701 16.8 12.8954422 28.4-1.07559953 11.2-2.28686606 11.2 2.62772349M18.4 21.6C15.7333333 25.7488381 16.5333333 29.2155048 20.8 32" transform="translate(278.4 501.2)"/></g></g></svg>