<svg xmlns="http://www.w3.org/2000/svg" xmlns:xlink="http://www.w3.org/1999/xlink" viewBox="0 0 949 977"><defs><path id="a" d="M12.8 5.702h77.6v77.6H12.8z"/></defs><g fill="none" fill-rule="evenodd"><path fill="#FAFBFC" d="M291.115 89C93.129 176.704 11.79 349.346 1.632 488.19-8.526 627.033 31.028 650.704 56.814 690.163 82.6 729.62 82.6 782.296 82.6 804.583c0 22.285 21.385 96.16 164.714 96.16s97.109 68.183 293.762 74.895C737.73 982.351 847.07 949.678 896 864.468c48.93-85.21 100.22-589.54-31.563-758.487C732.655-62.965 489.1 1.296 291.115 89z"/><path stroke="#E2ECF6" stroke-width="1.6" d="M348.8 510H372v23.2h-23.2zm-15.2-25.6h16v16h-16z"/><g transform="translate(282.4 294.698)"><rect width="40.8" height="4.8" x="15.2" y="92" fill="#E2ECF6" fill-rule="nonzero" rx="2.4"/><rect width="40.8" height="4.8" x="49.6" y="100" fill="#E2ECF6" fill-rule="nonzero" rx="2.4" transform="matrix(-1 0 0 1 140 0)"/><rect width="29.6" height="4.8" x="15.2" y="100" fill="#E2ECF6" fill-rule="nonzero" rx="2.4" transform="matrix(-1 0 0 1 60 0)"/><rect width="57.6" height="4.8" x="15.2" y="108.8" fill="#E2ECF6" fill-rule="nonzero" rx="2.4" transform="matrix(-1 0 0 1 88 0)"/><rect width="13.6" height="4.8" x="76.8" y="108.8" fill="#E2ECF6" fill-rule="nonzero" rx="2.4" transform="matrix(-1 0 0 1 167.2 0)"/><rect width="13.6" height="4.8" x="59.2" y="117.6" fill="#E2ECF6" fill-rule="nonzero" rx="2.4" transform="matrix(-1 0 0 1 132 0)"/><rect width="37.6" height="4.8" x="15.2" y="117.6" fill="#E2ECF6" fill-rule="nonzero" rx="2.4" transform="matrix(-1 0 0 1 68 0)"/><rect width="18.4" height="4.8" x="15.2" y="125.6" fill="#E2ECF6" fill-rule="nonzero" rx="2.4" transform="matrix(-1 0 0 1 48.8 0)"/><rect width="29.6" height="4.8" x="60.8" y="92" fill="#E2ECF6" fill-rule="nonzero" rx="2.4"/><use fill="#E2ECF6" xlink:href="#a"/><path stroke="#E2ECF6" stroke-width="1.6" d="M0 .102h107.2v153.6H0z"/><path stroke="#E2ECF6" stroke-width="1.6" d="M7.2 7.302H100v140H7.2z"/></g><g fill-rule="nonzero" stroke="#E2ECF6" transform="translate(466.4 322.8)"><circle cx="49.2" cy="49.2" r="49.2" stroke-width="1.6"/><ellipse cx="49.2" cy="49.246" stroke-width="1.6" rx="39.6" ry="39.749"/><path stroke-linecap="round" stroke-linejoin="round" stroke-width="4" d="M48.8 27.634V50.8h18"/><path stroke-linecap="round" stroke-linejoin="round" stroke-width="1.6" d="M8.8 50.8h9.74M48.8 9.498v9.74m0 59.86v9.74M79.2 50.8h9.74"/></g><g fill-rule="nonzero"><path stroke="#E2ECF6" stroke-dasharray="8" stroke-width="1.6" d="M564.8 475.522c17.22-59.07 49.136-77.28 95.748-54.627 69.916 33.98 42.951-62.876 57.852-77.373"/><path fill="#E2ECF6" d="M700.428 339.216l12.476.56 29.413-23.236z"/><path fill="#C0D5E9" d="M712.904 339.776l4.464 8.922 24.95-32.157z"/><path fill="#E2ECF6" d="M717.41 348.47l18.213-1.806 6.694-30.124z"/></g><path stroke="#E2ECF6" stroke-linecap="round" stroke-width="1.6" d="M353.6 519.2h13.6m-13.6 4.8h8"/><g fill-rule="nonzero" transform="translate(144 592.4)"><path fill="#C0D5E9" d="M149.6 20.8h9.6v232.8h-9.6z"/><rect width="189.6" height="20.8" x="60" fill="#E2ECF6" rx="10.4"/><path fill="#C0D5E9" d="M8 252c36.97-2.277 264.8-1.868 302.4.8 37.6 2.668-78.353 9.805-155.838 9.6C77.077 262.195-28.97 254.277 8 252z" opacity=".2"/><path fill="#A5C2DD" d="M149.6 20.8c2.934 7.712 5.066 17.048 6.394 28.008 1.329 10.96 2.397 28.024 3.206 51.192V20.8h-9.6z"/></g><g fill-rule="nonzero" transform="translate(417.6 485.2)"><path fill="#A5C2DD" d="M9.915 188.8c-9.053 15.703-3.861 25.837 15.576 30.4l5.709-18.589L9.915 188.8z"/><path fill="#E2ECF6" d="M223.67 19.42c8.266 1.459 13.787 9.342 12.329 17.61l-18.06 102.42c-1.457 8.267-9.341 13.787-17.608 12.33-7.345-1.296-12.25-8.3-10.955-15.645.09-.506.208-1.007.354-1.499 7.254-24.436 11.744-41.547 13.47-51.334 1.716-9.73 3.28-26.864 4.694-51.4.428-7.421 6.79-13.09 14.212-12.663.524.03 1.046.09 1.563.182z"/><path fill="#C0D5E9" d="M25.312 220.168c58.885 17.103 107.763 14.32 146.636-8.35C211.64 188.668 240 120.115 240 25.698c0-36.109-10.392-31.346-10.392-3.198s-12.012 158.774-60.863 164.53c-28.9 3.404-76.446 10.294-142.639 20.668a6.4 6.4 0 00-.794 12.469z"/><path fill="#A5C2DD" d="M156 204.8c34.997-20.267 56.33-54.4 64-102.4-13.457 39.665-26.03 65.875-37.717 78.628L156 204.8z"/><path fill="#3A61D6" d="M24 208.267c76.575 20.863 129.375 11.867 158.4-26.988-4.251-5.208-10.63-7.458-19.135-6.753-18.85 15.002-34.572 24.196-47.167 27.582-19.738 5.306-50.437 7.36-92.098 6.159z"/><rect width="9.6" height="136.8" x="54.503" y="219.279" fill="#C0D5E9" rx="4.8" transform="rotate(10 59.303 287.679)"/><rect width="9.6" height="146.4" x="147.236" y="215.267" fill="#C0D5E9" rx="4.8" transform="scale(-1 1) rotate(10 0 -1449.312)"/><path fill="#A5C2DD" d="M64.8 228.8c3.777 6.541 4.897 18.541 3.36 36l6.24-34.93-9.6-1.07zm80.8-5.6c-2.288 8.193-2.975 22.86-2.06 44L136 225.893l9.6-2.693z"/></g><g fill-rule="nonzero"><path fill="#E2ECF6" d="M262.4 584.4l2.39-3.2h66.693l6.117 3.2z"/><path fill="#C0D5E9" d="M239.099 495.4a4.014 4.014 0 00-4.886-2.873 3.992 3.992 0 00-2.885 4.863l24.56 95.01 103.306-.156c2.215-.003 4.01-1.793 4.006-4-.003-2.205-1.802-3.99-4.018-3.987l-97.076.147-23.007-89.005z"/><path fill="#638AFF" d="M264.8 581.989l-2.419 3.211L238.4 494l3.817 1.342z"/><path fill="#A5C2DD" d="M256 592.4c33.931-.64 60.176-1.307 78.734-2 18.559-.693 28.034-1.36 28.428-2 .142.589-.112 1.328-.764 2.218-.652.89-1.458 1.392-2.42 1.506L256 592.4z"/></g><g fill-rule="nonzero" transform="translate(211.2 376.4)"><path fill="#FFD9E1" d="M225.017 64.411c-1.211-.82-2.35-.29-3.417 1.589-1.747 3.08-5.061 7.896-6.836 11.661-1.27 2.695 2.952 4 12.666 3.914l-2.413-17.164z"/><path fill="#FFC4D1" d="M216 80c1.96 2.133 5.23 2.844 9.811 2.133 1.58-1.728-.018-2.107-4.79-1.135-.866.176-2.54-.157-5.021-.998z"/><path fill="#2A2945" d="M297.062 235.2c-85.26 18.617-130.147 28.4-134.662 29.348-6.773 1.422-36 5.124-48 33.679-8 19.036-25.067 63.901-51.2 134.594 4.899 6.14 11.122 8.341 18.669 6.605 16.908-29.615 29.085-48.78 36.531-57.494 11.17-13.071 35.182-36.32 38.391-79.525L309.6 290.406 297.062 235.2z"/><path fill="#FFC4D1" d="M65.386 427.2L53.6 454.94l18.232 8.26L84.8 434.688zm157.736 0L236 455.652 217.678 464 204.8 435.548z"/><path fill="#2A2945" d="M58.83 442.4C22.884 447.207 3.274 455.74 0 468l76.115.8 2.285-20c-5.373.063-9.178-.272-11.414-1.003-2.236-.731-4.955-2.53-8.156-5.397zm149.486 1.6c-34.807 3.806-53.845 11.807-57.116 24.004l84 .796-.033-13.381c-7.132-.116-12.266-.841-15.403-2.175-3.136-1.334-6.952-4.416-11.448-9.244z"/><path fill="#FFC4D1" d="M239.935 161.6l-12.76 41.177c-20.276-4.251-43.468-6.664-69.575-7.24l1.542 17.665c29.751 14.954 60.236 20.59 91.455 16.906 11.924-14.462 20.925-31.993 27.003-52.593L239.935 161.6z"/><path fill="#E40133" d="M266.442 101.6c-15.956 17.67-27.17 40.671-33.642 69.005 12.18-2.526 25.247.34 39.2 8.595-4.203-17.514-6.692-31.69-7.468-42.527-.46-6.407.178-18.098 1.91-35.073z"/><path fill="#FE2D5B" d="M277.38 74.364c7.18 14.996 4.98 23.259-6.597 24.788-17.366 2.293-25.354 68.678 3.778 105.014 4.533 13.576 3.273 27.019-3.778 40.329 42.9 39.666 74.884 55.301 95.948 46.905 6.675-2.66 17.115-29.448 18.483-46.905C389.734 141.5 354.589 84.002 279.776 72l-2.396 2.364z"/><path fill="#FFD9E1" d="M259.34 217.737c-32.35-9.763-65.03-15.231-98.045-16.404-1.19 4-5.096 6.001-11.718 6.001-9.934 0 77.895 48.815 120.157 38.412 42.263-10.403 112.172-132.84 61.155-147.346-5.927.398-9.907.932-11.94 1.6-16.298 5.36-36.167 44.606-59.61 117.737zm-.14-129.01c5.478 3.832 8.217 11.323 8.217 22.473 17.612-5.282 27.406-17.2 29.383-35.751L274.888 68.8 259.2 88.727z"/><path fill="#FFD9E1" d="M238.18 18.4c-21.691 21.917-24.79 46.026-9.296 72.329 23.24 39.453 71.51-40.316 60.783-51.698-7.15-7.588-24.313-14.465-51.487-20.631z"/><path fill="#B20128" d="M271.524 245.283c.932 3.238 2.532 4.658 4.8 4.259 7.612-1.338 16.08-10.46 24.396-18.96 12.78-13.064 24.306-30.479 36.88-52.648l-3.041-3.534c-7.958 16.024-17.977 31.094-30.056 45.212-12.08 14.117-23.073 22.674-32.979 25.67z"/><path fill="#363558" d="M346.622 310.064c-39.517 13.596-94.655 13.596-165.416 0 15.14 8.81 24.653 26.165 28.536 52.062 3.884 25.898 9.763 50.936 17.637 75.115-7.237 5.209-13.879 6.473-19.924 3.794-38.644-74.072-60.272-115.04-64.882-122.903-6.916-11.796-11.964-34.499 23.165-43.71 23.42-6.14 60.806-14.55 112.16-25.23l47.93-11.23c20.202-4.734 40.416 7.805 45.15 28.007 4.397 18.77-6.126 37.823-24.356 44.095z"/><path fill="#B20128" d="M332.8 182.06l5.133 4.34c16.218-37.448 19.845-63.048 10.88-76.8L332.8 182.06z"/><path fill="#FE4D74" d="M280.8 151.713c24.648 1.262 43.77 9.89 57.365 25.887 20.962-54.4 16.642-81.6-12.961-81.6-8.076 1.138-14.679 4.788-19.807 10.947-6.256 7.514-14.455 22.436-24.597 44.766z"/><path fill="#E40133" d="M296.842 75.2c-.32 3.302-.867 6.137-1.642 8.505 14.986.533 31.206 6.498 48.66 17.895-8.586-7.988-16.242-13.709-22.968-17.162-5.594-2.872-13.61-5.951-24.05-9.238z"/><path fill="#FFC4D1" d="M224.365 37.688c-1.022 2.298-1.677 4.06-1.965 5.284 12.8 6.11 25.6 4.052 38.4-6.172l-36.435.888z"/><path fill="#2A2945" d="M205.6 23.335c8.704 17.514 26.602 22.556 53.695 15.126 4.817 4.774 5.768 12.437 2.855 22.99C274.138 45.346 280.402 48.863 280.941 72c19.496-28.198 17.811-47.87-5.056-59.015-8.85-13.8-25.868-13.003-51.05 2.388-4.21 2.804-7.368 4.642-9.473 5.513-2.17.898-5.423 1.714-9.762 2.449z"/><path fill="#F9AABB" d="M296.8 75.786L281.404 71.2l-3.804 5.674c3.214 4.75 9.073 7.126 17.577 7.126.468-1.613.788-2.851.958-3.715.19-.962.412-2.462.665-4.5z"/><path fill="#FFC4D1" d="M246.4 101.6c10.153-1.592 20.602-9.886 31.346-24.883l3.854-5.854-5.566-18.063c-.04 8.694-2.851 17.756-8.435 27.186-5.584 9.43-12.65 16.635-21.199 21.614z"/><circle cx="268.4" cy="66" r="14.8" fill="#3A61D6"/><circle cx="269.6" cy="65.6" r="8" fill="#638AFF"/><path fill="#3A61D6" d="M276.653 62.626c5.257-19.852 6.485-35.272 2.908-46.1C275.912 5.486 265.343 0 252.273 0c-9.636 0-14.823 4.229-18.33 6.33-5.621 3.368-5.039 6.832-3.526 5.902 2.457-1.51 14.71-8.375 23.335-7.095 8.624 1.28 15.528 5.257 18.15 13.739 2.851 9.22 1.913 23.173-2.997 41.714a3.99 3.99 0 002.852 4.877 4.008 4.008 0 004.896-2.841z"/><path fill="#FFC4D1" d="M220.037 68.8c1.014-1.897 1.741-3.31 2.184-4.239.624-1.31-.383-3.364-3.02-6.161-.007 1.892.03 3.436.111 4.633.082 1.196.324 3.119.725 5.767z"/><path fill="#F9AABB" d="M283.325 151.866c24.425 6.964 40.393 16.844 47.903 29.642l3.972-7.318c-8.48-8.265-16.376-13.858-23.688-16.778-7.311-2.92-16.707-4.768-28.187-5.546z"/><path stroke="#17152C" stroke-width=".8" d="M364 263.2c-33.262 14.672-72.299 23.205-117.11 25.6-67.217 3.592-88.86-6.772-81.532 17.6 7.329 24.372 25.304 15.462 37.21 78.131 3.732 23.113 7.7 37.602 11.905 43.469"/><path fill="#E40133" d="M368.44 258.633c5.102 11.453 4.777 22.704-.976 33.751 19.826-19.332 24.268-58.66 13.325-117.984-.394 27.377-1.259 46.442-2.594 57.194-1.12 9.022-4.372 18.035-9.754 27.04z"/><path stroke="#17152C" stroke-linecap="round" stroke-width=".8" d="M344.8 245.6c15.49 5.251 22.649 17.785 21.476 37.6"/><path stroke="#B20128" stroke-linecap="round" stroke-width=".8" d="M284 145.798c15.2-1.257 30.4 3.477 45.6 14.202"/><path fill="#FFC4D1" d="M162.4 196.243c-17.04-12.04-32.992-13.034-47.856-2.984-6.379 5.333-5.394 9.21 2.955 11.632l28.869 2.984c3.309.78 5.471 1.456 6.488 2.03 5.833 3.294 7.46 5.86 7.52 5.93 1.124 1.312 1.799-5.218 2.024-19.592z"/><path stroke="#B20128" stroke-linecap="round" stroke-width=".8" d="M364.123 250.466c7.357-10.07 10.594-27.755 9.711-53.052"/><path stroke="#17152C" stroke-linecap="round" stroke-width="1.6" d="M178.4 449.6c2.575.358 4.975 2.224 7.2 5.6m-159.2-6.4c2.575.358 4.975 2.224 7.2 5.6m151.2-6.4c2.575.358 4.975 2.224 7.2 5.6m-160-6.4c2.575.358 4.975 2.224 7.2 5.6m152-5.6c2.575.358 4.975 2.224 7.2 5.6m-160-6.4c2.575.358 4.975 2.224 7.2 5.6"/><path fill="#FFC4D1" d="M228.331 66.38c1.97-.936 5.985-4.135 7.93-3.597 1.931.534 3.197 1.425 3.878 2.66a1.193 1.193 0 001.648.47 1.262 1.262 0 00.456-1.695c-1.028-1.866-2.839-3.14-5.354-3.836-2.501-.692-5.015-.442-7.49.733-.607.288-.827.697-1.068 1.668-.24.971-.606 3.885 0 3.597z"/><path fill="#F9AABB" d="M259.34 217.737l8.238-24.613c-3.275-5.242-6.02-11.92-8.239-20.036-6.66-2.69-13.983-3.762-21.97-3.217 9.875 1.94 16.761 7.533 20.659 16.777 4.573 10.847 5.01 21.21 1.311 31.09zm-148.94-18.22c.53 4.056 3.77 6.083 9.724 6.083 14.091-11.4 27.65-14.55 40.676-9.452-14.359-9.976-28.673-9.794-42.942.545-1.717.657-2.997 1.215-3.838 1.671-.869.471-2.075.856-3.62 1.154z"/><path fill="#FFD9E1" d="M168.8 201.51c-15.929-13.018-31.344-14.596-46.245-4.734-6.395 5.232-5.408 9.037 2.962 11.414a7.749 7.749 0 008.407 4.958c12.318-1.841 20.992-.945 26.022 2.689 1.57 1.134 4.522-3.641 8.854-14.327z"/><path fill="#17152C" d="M140.574 315.2c2.68 12.17-.883 25.228-10.686 39.174-9.803 13.945-16.832 27.287-21.088 40.026l25.277-31.667c9.902-14.043 15.343-24.07 16.323-30.083l-9.826-17.45z"/><path stroke="#17152C" stroke-linecap="round" stroke-width=".8" d="M200.8 428.61c9.55.815 16.75-.988 21.6-5.41"/></g><g fill-rule="nonzero"><path fill="#C0D5E9" d="M312 543.6l-1.386 8.146c5.323.867 9.386 5.486 9.386 11.054 0 6.186-5.014 11.2-11.2 11.2a11.27 11.27 0 01-1.946-.168L305.6 581.2h-20.8l-6.4-37.6H312zm-1.923 11.301l-2.686 15.775a8 8 0 102.686-15.775z"/><path stroke="#E2ECF6" stroke-linecap="round" stroke-width="1.6" d="M296.8 539.6c-8.8-7.689-9.333-16.19-1.6-25.505 11.6-13.97-5.6-15.182-5.6-10.267m7.2 18.972c-2.667 4.149-1.867 7.616 2.4 10.4"/></g></g></svg>